Coordinates
version=1
nRows=25
nColumns=28
inDegrees=yes

Units are S.I. units (second, meters, Newtons, ...)
Angles are in degrees.

endheader
time	pelvis_tilt	pelvis_list	pelvis_rotation	pelvis_tx	pelvis_ty	pelvis_tz	hip_flexion_r	hip_adduction_r	hip_rotation_r	knee_angle_r	ankle_angle_r	subtalar_angle_r	mtp_angle_r	hip_flexion_l	hip_adduction_l	hip_rotation_l	knee_angle_l	socket_flexion	socket_adduction	socket_rotation	socket_tx	socket_ty	socket_tz	foot_flex	lumbar_extension	lumbar_bending	lumbar_rotation
      0.00000000	     -2.37537913	     -0.03685678	     -2.87822181	     -0.78832986	      0.97058663	      0.25217885	    -20.89731855	      2.37621521	      3.68016776	     -2.21231206	     -3.06933706	    -17.44230144	     19.11700939	     24.78249418	      3.19853651	     -0.99760288	     -6.82322262	     -5.34302804	     -4.74409667	      3.55383683	      0.00000000	      0.00112708	      0.00000000	     -1.39402445	     -6.47944518	     -0.05862659	      0.84533391
      0.00416667	     -2.39870781	      0.04990903	     -2.92033621	     -0.78263161	      0.96926340	      0.25205162	    -21.15397075	      2.26655000	      3.73232953	     -2.30903930	     -3.06800042	    -17.43863753	     19.14941233	     24.81159476	      3.29945695	     -0.87092063	     -7.04840242	     -5.15737764	     -4.77186821	      3.60762514	      0.00000000	      0.00064965	      0.00000000	     -1.93390723	     -6.40004193	     -0.18960025	      0.88920867
      0.00833333	     -2.38649340	      0.13802789	     -2.96700905	     -0.77687322	      0.96801682	      0.25181865	    -21.36302716	      2.14755246	      3.77163537	     -2.57110091	     -3.09492653	    -17.44574249	     19.17587668	     24.83184320	      3.41537375	     -0.75160802	     -7.32770598	     -4.96542918	     -4.79850273	      3.61870149	      0.00000000	      0.00027205	      0.00000000	     -2.44028484	     -6.38219903	     -0.30845936	      0.93748237
      0.01250000	     -2.36344419	      0.24029517	     -3.03104649	     -0.77086291	      0.96676721	      0.25161315	    -21.57358381	      2.00486839	      3.77008789	     -2.87902846	     -3.11464758	    -17.46767740	     19.20793416	     24.83780357	      3.54165808	     -0.63940420	     -7.64905947	     -4.80773700	     -4.82331875	      3.57496639	      0.00000000	     -0.00016358	      0.00000000	     -2.99770417	     -6.36184420	     -0.45159656	      1.00388388
      0.01666667	     -2.32862183	      0.36660211	     -3.11237621	     -0.76462731	      0.96552007	      0.25140673	    -21.78365631	      1.82776425	      3.72748820	     -3.22015801	     -3.13425444	    -17.49676143	     19.25258904	     24.82777589	      3.68932623	     -0.50618650	     -8.02409138	     -4.69177291	     -4.83830627	      3.49768941	      0.00000000	     -0.00065110	      0.00000000	     -3.56885568	     -6.34950491	     -0.62385517	      1.09537180
      0.02083333	     -2.17264555	      0.64502378	     -3.13045659	     -0.75827804	      0.96446223	      0.25116914	    -22.08811413	      1.50181736	      3.39935491	     -3.64091009	     -3.10122188	    -17.48746277	     19.53028859	     24.80648659	      4.03406018	     -0.23483601	     -8.82624280	     -4.89373431	     -4.85916413	      3.13148451	      0.00000000	     -0.00079299	      0.00000000	     -4.08082842	     -6.45529060	     -1.03261001	      1.43924251
      0.02500000	     -2.17428941	      0.70868118	     -3.14658727	     -0.75190192	      0.96317456	      0.25088033	    -22.27905021	      1.41820475	      3.43185608	     -3.96455851	     -3.16817905	    -17.45439223	     19.59088897	     24.84597234	      4.13484578	     -0.14594123	     -9.15360400	     -4.63102557	     -4.86219344	      3.13946022	      0.00000000	     -0.00138444	      0.00000000	     -4.61187752	     -6.42439569	     -1.12352620	      1.45767718
      0.02916667	     -2.15152400	      0.83326692	     -3.20659719	     -0.74541407	      0.96199493	      0.25063414	    -22.41854795	      1.25120614	      3.37742574	     -4.41399020	     -3.26565273	    -17.45149824	     19.67024672	     24.85882391	      4.29140957	     -0.03591884	     -9.56198638	     -4.46535300	     -4.86462291	      3.06850417	      0.00000000	     -0.00195493	      0.00000000	     -5.22708254	     -6.40615704	     -1.30517187	      1.49793632
      0.03333333	     -2.10416545	      1.08730577	     -3.24639734	     -0.73877218	      0.96091602	      0.25044744	    -22.51376399	      0.94991611	      3.05794925	     -5.00207510	     -3.37139607	    -17.45126334	     19.91383174	     24.90863239	      4.58754922	      0.08725505	    -10.24080724	     -4.50986996	     -4.84222379	      2.76030895	      0.00000000	     -0.00228317	      0.00000000	     -5.77092329	     -6.39413944	     -1.64672745	      1.63909405
      0.03750000	     -2.09173013	      1.19459961	     -3.24222871	     -0.73206083	      0.95978175	      0.25004331	    -22.68886996	      0.82405063	      3.11613042	     -5.39739447	     -3.47405986	    -17.40102887	     19.99536068	     24.94158546	      4.75064716	      0.21539668	    -10.66385313	     -4.24828024	     -4.83444620	      2.69500384	      0.00000000	     -0.00286878	      0.00000000	     -6.16676100	     -6.35768481	     -1.79383259	      1.67320294
      0.04166667	     -2.13572520	      1.47443838	     -3.04862424	     -0.72561744	      0.95867139	      0.24940101	    -22.59814535	      0.55827654	      2.39884225	     -6.11406378	     -3.63361161	    -17.19038853	     20.78899295	     25.23653369	      5.19044329	      0.48446366	    -11.72837892	     -4.47479030	     -4.86531996	      2.43416868	      0.00000000	     -0.00285919	      0.00000000	     -6.65767070	     -6.28409430	     -2.17421762	      1.83219686
      0.04583333	     -2.46394979	      1.52936574	     -2.85205857	     -0.71921761	      0.95715674	      0.24890781	    -22.08139815	      0.51886312	      1.67291468	     -7.03814707	     -3.64476535	    -16.32708854	     23.51484784	     25.98885330	      5.30581190	      0.19487254	    -13.25019456	     -4.92696626	     -4.88640610	      2.76425921	      0.00000000	     -0.00305577	      0.00000000	     -7.06886077	     -5.89182009	     -2.24531354	      1.47624328
      0.05000000	     -2.42638692	      1.70826930	     -2.83451646	     -0.71265740	      0.95645594	      0.24865973	    -22.10008432	      0.32772407	      1.58779003	     -7.69543464	     -3.91204712	    -16.40567555	     23.56600081	     25.97161304	      5.52340245	      0.17324187	    -13.63367600	     -4.64572974	     -4.83867548	      2.70701787	      0.00000000	     -0.00343099	      0.00000000	     -7.44794751	     -5.91591825	     -2.50831327	      1.50750803
      0.05416667	     -2.42833947	      1.96190485	     -2.77600450	     -0.70603864	      0.95580279	      0.24840061	    -22.02128241	      0.06876475	      1.33608406	     -8.43901071	     -4.29076720	    -16.50425537	     23.70126501	     26.02830878	      5.82184784	      0.11667727	    -14.14595570	     -4.43906422	     -4.78477839	      2.64944620	      0.00000000	     -0.00359182	      0.00000000	     -7.71086623	     -5.87712472	     -2.87527665	      1.55887526
      0.05833333	     -2.42251114	      2.07931232	     -2.66279246	     -0.69943786	      0.95519151	      0.24800267	    -22.07159322	     -0.00701619	      1.43177238	     -8.96367066	     -4.50713727	    -16.48315029	     23.73859279	     26.05450421	      6.00283682	      0.14497107	    -14.53878788	     -4.07373082	     -4.72095071	      2.68423618	      0.00000000	     -0.00404222	      0.00000000	     -7.90629345	     -5.87426270	     -3.07323247	      1.55323688
      0.06250000	     -2.76297836	      2.30094790	     -2.46901930	     -0.69297510	      0.95406485	      0.24745725	    -21.35967830	     -0.25743857	      0.59616644	    -10.15779663	     -5.12048089	    -16.34000029	     26.03147401	     26.88339533	      6.28384386	     -0.29494052	    -16.40152067	     -4.76965269	     -4.81355142	      2.98965976	      0.00000000	     -0.00368693	      0.00000000	     -8.09600443	     -5.46938668	     -3.35781647	      1.43448840
      0.06666667	     -2.72905882	      2.52949586	     -2.41899265	     -0.68635602	      0.95375509	      0.24715511	    -21.22212049	     -0.51195532	      0.42423510	    -11.02255006	     -5.65530410	    -16.36733489	     26.07968368	     26.86457150	      6.54847949	     -0.32763510	    -16.85759690	     -4.50875230	     -4.73260802	      2.89885461	      0.00000000	     -0.00390021	      0.00000000	     -8.18523774	     -5.48500224	     -3.68257445	      1.42708470
      0.07083333	     -2.71146724	      2.75382535	     -2.35413884	     -0.67976220	      0.95348561	      0.24681112	    -21.02974763	     -0.76422578	      0.24646172	    -11.93956917	     -6.23786732	    -16.36800718	     26.14031070	     26.88256709	      6.80911291	     -0.36378200	    -17.37288943	     -4.26771477	     -4.63015894	      2.80705125	      0.00000000	     -0.00406194	      0.00000000	     -8.19657849	     -5.50116557	     -3.99630049	      1.40440409
      0.07500000	     -2.68261144	      2.90960421	     -2.18316363	     -0.67320125	      0.95332100	      0.24641156	    -20.94343128	     -0.85783235	      0.35453691	    -12.68941207	     -6.63468909	    -16.31372505	     26.17127806	     26.86579236	      7.02885330	     -0.30478591	    -17.80870861	     -3.93044316	     -4.54384698	      2.85885148	      0.00000000	     -0.00433577	      0.00000000	     -8.17554003	     -5.53906864	     -4.27044566	      1.38131450
      0.07916667	     -2.70018761	      3.21078591	     -2.16724288	     -0.66659718	      0.95318420	      0.24603598	    -20.48559645	     -1.27770324	     -0.15373283	    -13.96038407	     -7.60497460	    -16.29966080	     26.28043771	     26.94171581	      7.34926194	     -0.43171904	    -18.48482765	     -3.85951439	     -4.42452386	      2.65868224	      0.00000000	     -0.00424796	      0.00000000	     -8.03825531	     -5.48663267	     -4.63212134	      1.34837976
      0.08333333	     -3.28158811	      3.29221391	     -1.77510251	     -0.66018654	      0.95212335	      0.24504687	    -19.43269622	     -1.35170251	     -0.77604422	    -15.24862883	     -8.30430224	    -15.94081876	     28.04629724	     28.05252821	      7.55540658	     -0.60370186	    -20.43532237	     -4.50339499	     -4.47102408	      2.91725241	      0.00000000	     -0.00363045	      0.00000000	     -7.89707571	     -4.81304954	     -4.74389727	      1.12023743
      0.08750000	     -3.15708925	      3.46457454	     -1.72190211	     -0.65369295	      0.95236279	      0.24466804	    -19.19220260	     -1.57436491	     -0.81265037	    -16.36164394	     -9.06154634	    -15.86617346	     28.06628269	     27.91142178	      7.74767201	     -0.66671777	    -20.90836838	     -4.23429468	     -4.34947053	      2.85548337	      0.00000000	     -0.00376681	      0.00000000	     -7.60359083	     -4.96577185	     -4.98818727	      1.07011985
      0.09166667	     -3.12468171	      3.72210732	     -1.63006728	     -0.64713746	      0.95254305	      0.24431254	    -18.78845898	     -1.90355373	     -1.04801802	    -17.56900411	    -10.06978849	    -15.77165600	     28.13043083	     27.88535337	      8.01642488	     -0.77504609	    -21.46803248	     -4.06901494	     -4.20165329	      2.83588077	      0.00000000	     -0.00368856	      0.00000000	     -7.35775596	     -4.99114599	     -5.35333385	      1.04761539
      0.09583333	     -3.05179097	      3.87845720	     -1.42025900	     -0.64063613	      0.95286652	      0.24389394	    -18.53973387	     -1.99875185	     -0.90560735	    -18.58387809	    -10.70172599	    -15.64758836	     28.15210251	     27.78234001	      8.22556229	     -0.70444634	    -21.92088063	     -3.77071612	     -4.07387915	      2.97723634	      0.00000000	     -0.00375244	      0.00000000	     -7.04957933	     -5.09603152	     -5.64775967	      1.00618253
      0.10000000	     -3.62006204	      4.03760100	     -1.25575348	     -0.63425225	      0.95212273	      0.24314026	    -17.17083812	     -2.35386480	     -1.59068372	    -20.31644023	    -12.06490017	    -15.33968708	     29.25926794	     28.81082148	      8.37211946	     -1.33369958	    -23.78602414	     -4.45091140	     -4.13745651	      3.28459875	      0.00000000	     -0.00284816	      0.00000000	     -6.66275276	     -4.40781476	     -5.80059987	      0.90725921
